<?xml version="1.0" standalone="no"?>
<!DOCTYPE svg PUBLIC "-//W3C//DTD SVG 20010904//EN"
 "http://www.w3.org/TR/2001/REC-SVG-20010904/DTD/svg10.dtd">
<svg version="1.0" xmlns="http://www.w3.org/2000/svg"
 width="636.000000pt" height="636.000000pt" viewBox="0 0 636.000000 636.000000"
 preserveAspectRatio="xMidYMid meet">
<metadata>
Created by potrace 1.11, written by Peter Selinger 2001-2013
</metadata>
<g transform="translate(0.000000,636.000000) scale(0.100000,-0.100000)"
fill="#000000" stroke="none">
<path d="M965 4310 c-76 -17 -114 -53 -195 -185 -46 -74 -176 -338 -256 -520
-49 -109 -49 -111 -47 -210 2 -138 12 -175 51 -200 17 -11 52 -33 78 -49 54
-34 98 -97 113 -164 6 -26 22 -101 37 -167 81 -374 273 -639 574 -794 172 -88
311 -123 489 -123 410 1 768 214 935 557 75 153 136 349 136 435 0 44 -31 113
-65 144 -32 29 -24 53 27 84 60 36 140 46 368 46 186 0 222 -3 269 -20 77 -27
83 -42 41 -100 -23 -32 -35 -61 -38 -93 -10 -105 63 -383 142 -538 73 -146
209 -286 366 -379 129 -76 380 -144 535 -144 85 0 240 28 337 61 178 59 322
152 454 292 162 172 243 337 303 616 42 196 70 240 196 298 51 23 63 50 71
154 8 110 -12 179 -139 479 -118 278 -169 353 -297 440 -155 105 -266 94 -477
-48 -49 -33 -125 -78 -169 -100 -90 -45 -103 -63 -111 -152 -6 -64 16 -130 43
-130 10 0 42 26 73 58 312 324 339 347 424 358 69 10 139 -28 220 -119 36 -40
73 -90 84 -112 46 -91 133 -393 133 -459 l0 -29 -71 7 c-38 3 -163 31 -277 61
-297 78 -406 96 -612 102 -205 6 -378 -12 -558 -58 -136 -35 -227 -72 -364
-147 -120 -66 -158 -71 -210 -27 l-33 28 -125 -9 c-160 -11 -353 -11 -502 0
l-117 9 -39 -32 c-61 -48 -95 -42 -252 45 -55 30 -149 70 -224 94 -252 81
-427 105 -706 97 -191 -6 -296 -21 -490 -72 -147 -38 -326 -75 -365 -75 -28 0
-35 4 -35 19 0 41 52 211 110 360 99 251 148 331 204 331 53 0 150 -89 343
-316 62 -73 120 -135 130 -138 12 -5 24 0 37 16 15 19 18 36 14 104 -3 51 -10
91 -20 106 -9 13 -54 47 -100 76 -47 28 -120 79 -164 113 -123 95 -212 133
-279 119z m870 -800 c287 -32 516 -116 635 -232 74 -72 121 -142 156 -233 23
-59 28 -90 32 -198 5 -156 -7 -225 -58 -327 -49 -98 -106 -169 -177 -222 -32
-23 -81 -63 -109 -89 -140 -125 -392 -196 -606 -171 -200 24 -379 106 -538
249 -107 96 -152 154 -207 270 -59 124 -85 245 -86 398 0 110 2 129 32 220 31
91 38 104 95 160 95 94 227 152 398 174 91 12 329 12 433 1z m3072 -1 c207
-28 336 -83 444 -189 54 -53 69 -75 82 -120 40 -140 46 -241 23 -380 -32 -191
-126 -371 -265 -507 -84 -82 -159 -134 -275 -188 -391 -185 -817 -83 -1092
260 -58 73 -70 94 -94 171 -30 96 -37 261 -17 379 40 225 210 426 428 506 66
24 225 60 324 72 68 9 369 6 442 -4z"/>
</g>
</svg>
